<svg width="19" height="24" viewBox="0 0 19 24" fill="none" xmlns="http://www.w3.org/2000/svg">
<path d="M8.3125 20.4H10.6875V15.39L12.5875 17.31L14.25 15.6L9.5 10.8L4.75 15.6L6.44219 17.28L8.3125 15.39V20.4ZM2.375 24C1.72187 24 1.16296 23.7652 0.69825 23.2956C0.23275 22.8252 0 22.26 0 21.6V2.4C0 1.74 0.23275 1.1748 0.69825 0.7044C1.16296 0.2348 1.72187 0 2.375 0H11.875L19 7.2V21.6C19 22.26 18.7676 22.8252 18.3029 23.2956C17.8374 23.7652 17.2781 24 16.625 24H2.375ZM10.6875 8.4V2.4H2.375V21.6H16.625V8.4H10.6875ZM2.375 2.4V8.4V2.4V21.6V2.4Z" fill="#5071A9"/>
</svg>
