<svg width="26" height="26" viewBox="0 0 26 26" fill="none" xmlns="http://www.w3.org/2000/svg">
<g filter="url(#filter0_d_29_1399)">
<path fill-rule="evenodd" clip-rule="evenodd" d="M13 1C13.4012 1 13.7966 1.02971 14.1817 1.08686L14.7623 2.84569C15.2709 2.99083 15.7543 3.19768 16.2023 3.45825L17.8708 2.65369C18.4617 3.1074 18.9874 3.64224 19.4308 4.24109L18.5965 5.89478C18.8491 6.34734 19.048 6.83419 19.184 7.34619L20.9325 7.95532C21.0288 8.69474 21.0223 9.44394 20.9131 10.1816L19.1542 10.7621C19.0101 11.2655 18.8043 11.7492 18.5417 12.2021L19.3462 13.8707C18.8919 14.4617 18.3577 14.9867 17.7588 15.4306L16.1051 14.5964C15.6477 14.8518 15.1601 15.0491 14.6537 15.1838L14.0446 16.9323C13.3052 17.0287 12.556 17.0221 11.8184 16.9129L11.2378 15.1541C10.7344 15.0099 10.2508 14.8042 9.79781 14.5415L8.12927 15.3461C7.53826 14.8917 7.01325 14.3575 6.56929 13.7587L7.40357 12.105C7.14873 11.6472 6.95142 11.1597 6.81615 10.6536L5.0676 10.0433C4.97137 9.30424 4.97791 8.55543 5.08703 7.81818L6.84586 7.23762C6.991 6.72905 7.19786 6.24563 7.45842 5.79764L6.65386 4.12909C7.10819 3.53808 7.64243 3.01307 8.24127 2.56912L9.89496 3.40339C10.3524 3.14793 10.84 2.9506 11.3464 2.81597L11.9566 1.06743C12.3026 1.02242 12.6512 0.999893 13 1V1Z" stroke="white" stroke-width="0.933" stroke-linecap="round" stroke-linejoin="round"/>
<path d="M12.9988 12.4283C14.8923 12.4283 16.4273 10.8933 16.4273 8.99981C16.4273 7.10629 14.8923 5.57129 12.9988 5.57129C11.1053 5.57129 9.57031 7.10629 9.57031 8.99981C9.57031 10.8933 11.1053 12.4283 12.9988 12.4283Z" stroke="white" stroke-linecap="round" stroke-linejoin="round"/>
</g>
<defs>
<filter id="filter0_d_29_1399" x="0.535156" y="0.533447" width="24.9297" height="24.9331" filterUnits="userSpaceOnUse" color-interpolation-filters="sRGB">
<feFlood flood-opacity="0" result="BackgroundImageFix"/>
<feColorMatrix in="SourceAlpha" type="matrix" values="0 0 0 0 0 0 0 0 0 0 0 0 0 0 0 0 0 0 127 0" result="hardAlpha"/>
<feOffset dy="4"/>
<feGaussianBlur stdDeviation="2"/>
<feComposite in2="hardAlpha" operator="out"/>
<feColorMatrix type="matrix" values="0 0 0 0 0 0 0 0 0 0 0 0 0 0 0 0 0 0 0.25 0"/>
<feBlend mode="normal" in2="BackgroundImageFix" result="effect1_dropShadow_29_1399"/>
<feBlend mode="normal" in="SourceGraphic" in2="effect1_dropShadow_29_1399" result="shape"/>
</filter>
</defs>
</svg>
