<svg width="24" height="23" viewBox="0 0 24 23" fill="none" xmlns="http://www.w3.org/2000/svg">
<g filter="url(#filter0_d_29_1391)">
<path d="M5.52381 12.9524V4.57143V12.9524ZM5.52381 14.4762C5.10476 14.4762 4.74616 14.3271 4.448 14.029C4.14933 13.7303 4 13.3714 4 12.9524V4.57143C4 4.15238 4.14933 3.79378 4.448 3.49562C4.74616 3.19695 5.10476 3.04762 5.52381 3.04762H8.57143V1.52381C8.57143 1.10476 8.72076 0.745905 9.01943 0.447238C9.31759 0.149079 9.67619 0 10.0952 0H13.1429C13.5619 0 13.9208 0.149079 14.2194 0.447238C14.5176 0.745905 14.6667 1.10476 14.6667 1.52381V3.04762H17.7143C18.1333 3.04762 18.4922 3.19695 18.7909 3.49562C19.089 3.79378 19.2381 4.15238 19.2381 4.57143V7.82857C19.0095 7.66349 18.7683 7.52051 18.5143 7.39962C18.2603 7.27924 17.9937 7.1746 17.7143 7.08571V4.57143H5.52381V12.9524H10.9143C10.9524 13.219 11.0095 13.4794 11.0857 13.7333C11.1619 13.9873 11.2571 14.2349 11.3714 14.4762H5.52381ZM10.0952 3.04762H13.1429V1.52381H10.0952V3.04762ZM16.1905 16C15.1365 16 14.2382 15.6287 13.4956 14.8861C12.7525 14.143 12.381 13.2444 12.381 12.1905C12.381 11.1365 12.7525 10.238 13.4956 9.49486C14.2382 8.75225 15.1365 8.38095 16.1905 8.38095C17.2444 8.38095 18.143 8.75225 18.8861 9.49486C19.6287 10.238 20 11.1365 20 12.1905C20 13.2444 19.6287 14.143 18.8861 14.8861C18.143 15.6287 17.2444 16 16.1905 16ZM17.4476 13.981L17.981 13.4476L16.5714 12.0381V9.90476H15.8095V12.3429L17.4476 13.981Z" fill="white"/>
</g>
<defs>
<filter id="filter0_d_29_1391" x="0.930233" y="0" width="22.1395" height="22.1395" filterUnits="userSpaceOnUse" color-interpolation-filters="sRGB">
<feFlood flood-opacity="0" result="BackgroundImageFix"/>
<feColorMatrix in="SourceAlpha" type="matrix" values="0 0 0 0 0 0 0 0 0 0 0 0 0 0 0 0 0 0 127 0" result="hardAlpha"/>
<feOffset dy="3.06977"/>
<feGaussianBlur stdDeviation="1.53488"/>
<feComposite in2="hardAlpha" operator="out"/>
<feColorMatrix type="matrix" values="0 0 0 0 0 0 0 0 0 0 0 0 0 0 0 0 0 0 0.25 0"/>
<feBlend mode="normal" in2="BackgroundImageFix" result="effect1_dropShadow_29_1391"/>
<feBlend mode="normal" in="SourceGraphic" in2="effect1_dropShadow_29_1391" result="shape"/>
</filter>
</defs>
</svg>
